Coordinates
version=1
nRows=60
nColumns=12
inDegrees=yes

Units are S.I. units (second, meters, Newtons, ...)
Angles are in degrees

endheader
time	SC_y	SC_z	SC_x	AC_y	AC_z	AC_x	GH_y	GH_z	GH_yy	EL_x	PS_y
       0.0              -41.69         -2.656          43.93          55.32          7.921          16.18          74.48          62.55          130.7           62.6          12.81
   0.03464              -41.69         -2.655          43.94          55.32          7.919          16.18          74.47          62.55          130.7          62.59          12.83
   0.06928              -41.69         -2.655          43.94          55.33          7.917          16.18          74.47          62.55          130.7          62.58          12.85
    0.1039              -41.69         -2.654          43.95          55.33          7.914          16.18          74.46          62.55          130.7          62.57          12.87
    0.1386              -41.69         -2.653          43.96          55.33          7.912          16.18          74.45          62.55          130.7          62.57          12.89
    0.1732              -41.69         -2.652          43.96          55.33          7.909          16.17          74.44          62.56          130.7          62.56          12.91
    0.2078               -41.7         -2.651          43.97          55.34          7.906          16.17          74.43          62.56          130.7          62.55          12.94
    0.2425               -41.7          -2.65          43.98          55.34          7.903          16.17          74.42          62.56          130.7          62.54          12.97
    0.2771               -41.7         -2.648          43.99          55.34          7.899          16.17           74.4          62.56          130.8          62.53           13.0
    0.3118               -41.7         -2.647           44.0          55.34          7.895          16.16          74.39          62.56          130.8          62.52          13.03
    0.3464               -41.7         -2.646          44.01          55.35          7.891          16.16          74.38          62.57          130.8          62.51          13.06
     0.381               -41.7         -2.644          44.02          55.35          7.887          16.16          74.36          62.57          130.8          62.49           13.1
    0.4157               -41.7         -2.643          44.03          55.36          7.883          16.16          74.35          62.57          130.8          62.48          13.14
    0.4503              -41.71         -2.641          44.05          55.36          7.878          16.15          74.33          62.57          130.8          62.47          13.18
     0.485              -41.71         -2.639          44.06          55.37          7.872          16.15          74.31          62.58          130.8          62.45          13.22
    0.5196              -41.71         -2.637          44.08          55.37          7.866          16.14          74.29          62.58          130.9          62.43          13.27
    0.5542              -41.71         -2.635          44.09          55.38           7.86          16.14          74.27          62.58          130.9          62.42          13.33
    0.5889              -41.72         -2.632          44.11          55.38          7.853          16.14          74.25          62.59          130.9          62.39          13.39
    0.6235              -41.72          -2.63          44.13          55.39          7.846          16.13          74.22          62.59          130.9          62.37          13.45
    0.6582              -41.72         -2.627          44.15           55.4          7.837          16.12          74.19           62.6          130.9          62.35          13.52
    0.6928              -41.73         -2.624          44.18           55.4          7.828          16.12          74.16           62.6          131.0          62.32           13.6
    0.7274              -41.73          -2.62          44.21          55.41          7.818          16.11          74.13          62.61          131.0          62.29          13.68
    0.7621              -41.73         -2.616          44.23          55.42          7.807           16.1          74.09          62.61          131.0          62.26          13.77
    0.7967              -41.74         -2.612          44.27          55.43          7.795          16.09          74.04          62.62          131.1          62.22          13.88
    0.8314              -41.74         -2.607           44.3          55.44          7.781          16.09           74.0          62.63          131.1          62.18          13.99
     0.866              -41.75         -2.602          44.34          55.46          7.766          16.07          73.95          62.63          131.2          62.14          14.12
    0.9006              -41.76         -2.596          44.39          55.47          7.749          16.06          73.89          62.64          131.2          62.09          14.27
    0.9353              -41.76         -2.589          44.44          55.49           7.73          16.05          73.82          62.65          131.3          62.03          14.43
    0.9699              -41.77         -2.582           44.5          55.51          7.708          16.03          73.75          62.67          131.3          61.97          14.61
     1.005              -41.78         -2.573          44.56          55.53          7.684          16.02          73.66          62.68          131.4           61.9          14.82
     1.039              -41.79         -2.563          44.64          55.55          7.656           16.0          73.56           62.7          131.5          61.81          15.06
     1.074               -41.8         -2.552          44.72          55.58          7.624          15.98          73.45          62.71          131.6          61.72          15.33
     1.108              -41.82         -2.539          44.82          55.62          7.586          15.95          73.33          62.73          131.7          61.61          15.64
     1.143              -41.84         -2.524          44.94          55.65          7.543          15.92          73.18          62.76          131.8          61.48          16.01
     1.178              -41.85         -2.506          45.07           55.7          7.493          15.89           73.0          62.78          132.0          61.34          16.43
     1.212              -41.88         -2.485          45.23          55.75          7.433          15.84           72.8          62.82          132.2          61.16          16.94
     1.247               -41.9         -2.461          45.42          55.81          7.363           15.8          72.55          62.86          132.4          60.95          17.54
     1.282              -41.94         -2.431          45.64          55.89          7.278          15.74          72.26           62.9          132.6           60.7          18.25
     1.316              -41.98         -2.395          45.92          55.97          7.175          15.67          71.91          62.96          133.0           60.4          19.12
     1.351              -42.03         -2.351          46.25          56.08           7.05          15.58          71.47          63.03          133.3          60.04          20.18
     1.386              -42.09         -2.297          46.66          56.22          6.895          15.47          70.94          63.11          133.8          59.58          21.49
      1.42              -42.16          -2.23          47.17          56.39          6.703          15.34          70.27          63.22          134.4          59.01          23.12
     1.455              -42.25         -2.145          47.82           56.6           6.46          15.17          69.44          63.35          135.1           58.3          25.18
      1.49              -42.37         -2.037          48.64          56.87          6.151          14.96          68.37          63.52          136.1          57.39          27.79
     1.524              -42.52         -1.898          49.69          57.22          5.756          14.68          67.01          63.74          137.3          56.23          31.14
     1.559              -42.72         -1.721          51.04          57.66          5.248          14.33          65.26          64.02          138.8          54.74          35.43
     1.593              -42.97         -1.494          52.77          58.23          4.601          13.88          63.02          64.38          140.8          52.84          40.91
     1.628              -43.28         -1.209          54.93          58.94          3.786          13.32          60.21          64.83          143.3          50.45          47.81
     1.663              -43.67        -0.8619          57.57          59.81          2.793          12.63          56.78          65.37          146.3          47.53          56.21
     1.697              -44.11        -0.4593          60.64          60.82          1.643          11.83          52.81          66.01          149.9          44.15          65.95
     1.732              -44.59       -0.02333          63.95          61.91         0.3967          10.97          48.51          66.69          153.7          40.49          76.49
     1.767              -45.07         0.4126          67.27           63.0        -0.8492          10.11          44.21          67.38          157.5          36.83          87.03
     1.801              -45.52         0.8152          70.33           64.0           -2.0          9.311          40.24          68.01          161.0          33.45          96.77
     1.836               -45.9          1.163          72.97          64.87         -2.993          8.624          36.81          68.56          164.0          30.53          105.2
     1.871              -46.21          1.448          75.14          65.58         -3.807           8.06           34.0          69.01          166.5          28.14          112.1
     1.905              -46.46          1.674          76.86          66.15         -4.455          7.611          31.77          69.37          168.5          26.24          117.6
      1.94              -46.66          1.852          78.21          66.59         -4.962           7.26          30.02          69.64          170.0          24.75          121.8
     1.974              -46.81           1.99          79.26          66.94         -5.357          6.986          28.65          69.86          171.2          23.58          125.2
     2.009              -46.93          2.098          80.08          67.21         -5.666          6.772          27.59          70.03          172.2          22.68          127.8
     2.044              -47.03          2.183          80.73          67.42         -5.909          6.604          26.75          70.17          172.9          21.96          129.9
